<svg xmlns="http://www.w3.org/2000/svg" viewBox="0 0 256 193" role="img" aria-labelledby="gmail-title">
  <title id="gmail-title">Gmail</title>
  <path fill="#4285F4" d="M58.18 192.05V93.14L27.09 69.82 0 54.53v122.79c0 8.14 6.6 14.73 14.73 14.73h43.45Z"/>
  <path fill="#34A853" d="M197.82 192.05h43.45c8.14 0 14.73-6.6 14.73-14.73V54.53l-26.62 15.1-31.56 23.51v98.91Z"/>
  <path fill="#EA4335" d="M58.18 93.14 54.08 55.1l4.1-36.42L128 72.05l69.82-53.37 4.67 34.42-4.67 40.04L128 146.5 58.18 93.14Z"/>
  <path fill="#FBBC04" d="M197.82 18.68v74.46L256 54.53V26.06c0-18.21-20.78-28.58-35.29-17.66l-22.89 10.28Z"/>
  <path fill="#C5221F" d="M0 54.53 26.76 74.6l31.42 18.54V18.68L35.29 8.4C20.78-2.52 0 7.85 0 26.06v28.47Z"/>
</svg>
